<svg width="17" height="21" viewBox="0 0 17 21" fill="none" xmlns="http://www.w3.org/2000/svg">
<path d="M16.0999 0H0.700186C0.313968 0 0 0.313468 0 0.700186V20.2998C0 20.686 0.313468 21 0.700186 21H16.0999C16.4861 21 16.8001 20.6865 16.8001 20.2998V0.700186C16.8001 0.313468 16.4866 0 16.1004 0H16.0999ZM15.3997 19.5996H1.39997V1.39997H15.3997V19.5996ZM12.6 13.9996H4.19979V12.5998H12.5995L12.6 13.9996ZM12.6 11.1999H4.19979V9.80006H12.5995L12.6 11.1999ZM12.6 8.39972H4.19979V6.99987H12.5995L12.6 8.39972Z" fill="#616161"/>
</svg>
