<svg width="22" height="22" viewBox="0 0 22 22" fill="none" xmlns="http://www.w3.org/2000/svg">
<path d="M19.1535 9.46347C19.1535 7.32359 18.3034 5.27134 16.7903 3.75822C15.2772 2.24509 13.2249 1.39502 11.0851 1.39502C8.94517 1.39502 6.89293 2.24509 5.3798 3.75822C3.86667 5.27134 3.0166 7.32359 3.0166 9.46347" stroke="#616161" stroke-width="1.5" stroke-linecap="round" stroke-linejoin="round"/>
<path d="M19.154 16.5235V17.0278C19.154 17.5628 18.9415 18.0759 18.5632 18.4541C18.1849 18.8324 17.6719 19.0449 17.1369 19.0449H13.607M1 13.9396V12.0476C1.00007 11.5978 1.15048 11.1609 1.42733 10.8064C1.70418 10.4519 2.09158 10.2 2.52796 10.091L4.28285 9.65124C4.37203 9.62903 4.46508 9.62742 4.55497 9.64654C4.64486 9.66565 4.72921 9.70499 4.80163 9.76156C4.87405 9.81814 4.93263 9.89046 4.97293 9.97305C5.01323 10.0556 5.03419 10.1463 5.03423 10.2382V15.748C5.03439 15.8401 5.01352 15.931 4.97323 16.0138C4.93294 16.0966 4.87428 16.1691 4.80172 16.2258C4.72915 16.2825 4.64461 16.3219 4.55452 16.341C4.46443 16.3601 4.37117 16.3584 4.28184 16.336L2.52695 15.8972C2.09076 15.788 1.70359 15.5361 1.42693 15.1816C1.15028 14.8271 1.00001 14.3903 1 13.9406V13.9396ZM21.1711 13.9396V12.0476C21.1711 11.5978 21.0207 11.1609 20.7438 10.8064C20.467 10.4519 20.0796 10.2 19.6432 10.091L17.8883 9.65124C17.7991 9.62903 17.706 9.62742 17.6162 9.64654C17.5263 9.66565 17.4419 9.70499 17.3695 9.76156C17.2971 9.81814 17.2385 9.89046 17.1982 9.97305C17.1579 10.0556 17.1369 10.1463 17.1369 10.2382V15.748C17.1368 15.8399 17.1576 15.9307 17.1979 16.0135C17.2381 16.0962 17.2967 16.1686 17.3691 16.2253C17.4415 16.282 17.526 16.3214 17.6159 16.3406C17.7059 16.3598 17.799 16.3582 17.8883 16.336L19.6432 15.8972C20.0796 15.7882 20.467 15.5363 20.7438 15.1818C21.0207 14.8273 21.1711 14.3904 21.1711 13.9406V13.9396Z" stroke="#616161" stroke-width="1.5"/>
<path d="M12.5981 20.5574H9.57241C9.17118 20.5574 8.78638 20.398 8.50267 20.1143C8.21896 19.8306 8.05957 19.4458 8.05957 19.0446C8.05957 18.6433 8.21896 18.2585 8.50267 17.9748C8.78638 17.6911 9.17118 17.5317 9.57241 17.5317H12.5981C12.9993 17.5317 13.3841 17.6911 13.6678 17.9748C13.9515 18.2585 14.1109 18.6433 14.1109 19.0446C14.1109 19.4458 13.9515 19.8306 13.6678 20.1143C13.3841 20.398 12.9993 20.5574 12.5981 20.5574Z" stroke="#616161" stroke-width="1.5"/>
</svg>
