<svg width="22" height="22" viewBox="0 0 22 22" fill="none" xmlns="http://www.w3.org/2000/svg">
<path d="M10.7285 4.29175C9.60955 4.29317 8.53682 4.7383 7.7456 5.52953C6.95437 6.32076 6.50923 7.39349 6.50781 8.51245H8.65357C8.65357 7.36769 9.58483 6.43751 10.7285 6.43751C11.8722 6.43751 12.8035 7.36769 12.8035 8.51245C12.8035 9.15403 12.2874 9.61966 11.4988 10.257C11.2412 10.4588 10.9938 10.6732 10.7575 10.8996C9.68675 11.9693 9.65564 13.1054 9.65564 13.232V13.9477H11.8014L11.8003 13.2685C11.8014 13.2514 11.8357 12.8544 12.2735 12.4177C12.4344 12.2568 12.6372 12.0959 12.8475 11.9264C13.6832 11.2494 14.9481 10.2269 14.9481 8.51245C14.9473 7.3935 14.5025 6.3206 13.7114 5.52928C12.9203 4.73796 11.8475 4.29288 10.7285 4.29175ZM9.65564 15.0205H11.8014V17.1663H9.65564V15.0205Z" fill="#616161"/>
<path d="M10.7288 0C4.81293 0 0 4.81293 0 10.7288C0 16.6446 4.81293 21.4576 10.7288 21.4576C16.6446 21.4576 21.4576 16.6446 21.4576 10.7288C21.4576 4.81293 16.6446 0 10.7288 0ZM10.7288 19.3118C5.99632 19.3118 2.14576 15.4613 2.14576 10.7288C2.14576 5.99632 5.99632 2.14576 10.7288 2.14576C15.4613 2.14576 19.3118 5.99632 19.3118 10.7288C19.3118 15.4613 15.4613 19.3118 10.7288 19.3118Z" fill="#616161"/>
</svg>
