<svg width="18" height="21" viewBox="0 0 18 21" fill="none" xmlns="http://www.w3.org/2000/svg">
<path d="M7.26923 0H0.807692C0.593511 0 0.387978 0.0850985 0.236538 0.236538C0.0850985 0.387978 0 0.593511 0 0.807692V12.9231C0 13.1373 0.0850985 13.3428 0.236538 13.4942C0.387978 13.6457 0.593511 13.7308 0.807692 13.7308H7.26923C7.48341 13.7308 7.68894 13.6457 7.84038 13.4942C7.99182 13.3428 8.07692 13.1373 8.07692 12.9231V0.807692C8.07692 0.593511 7.99182 0.387978 7.84038 0.236538C7.68894 0.0850985 7.48341 0 7.26923 0ZM6.46154 12.1154H1.61538V1.61538H6.46154V12.1154Z" fill="#616161"/>
<path d="M7.26923 14.5383H0.807692C0.593511 14.5383 0.387978 14.6234 0.236538 14.7749C0.0850985 14.9263 0 15.1318 0 15.346V20.1922C0 20.4064 0.0850985 20.6119 0.236538 20.7633C0.387978 20.9148 0.593511 20.9999 0.807692 20.9999H7.26923C7.48341 20.9999 7.68894 20.9148 7.84038 20.7633C7.99182 20.6119 8.07692 20.4064 8.07692 20.1922V15.346C8.07692 15.1318 7.99182 14.9263 7.84038 14.7749C7.68894 14.6234 7.48341 14.5383 7.26923 14.5383ZM6.46154 19.3845H1.61538V16.1537H6.46154V19.3845Z" fill="#616161"/>
<path d="M16.9616 7.26929H10.5001C10.2859 7.26929 10.0804 7.35439 9.92892 7.50583C9.77748 7.65727 9.69238 7.8628 9.69238 8.07698V20.1924C9.69238 20.4065 9.77748 20.6121 9.92892 20.7635C10.0804 20.915 10.2859 21.0001 10.5001 21.0001H16.9616C17.1758 21.0001 17.3813 20.915 17.5328 20.7635C17.6842 20.6121 17.7693 20.4065 17.7693 20.1924V8.07698C17.7693 7.8628 17.6842 7.65727 17.5328 7.50583C17.3813 7.35439 17.1758 7.26929 16.9616 7.26929ZM16.1539 19.3847H11.3078V8.88467H16.1539V19.3847Z" fill="#616161"/>
<path d="M16.9616 0H10.5001C10.2859 0 10.0804 0.0850985 9.92892 0.236538C9.77748 0.387978 9.69238 0.593511 9.69238 0.807692V5.65385C9.69238 5.86803 9.77748 6.07356 9.92892 6.225C10.0804 6.37644 10.2859 6.46154 10.5001 6.46154H16.9616C17.1758 6.46154 17.3813 6.37644 17.5328 6.225C17.6842 6.07356 17.7693 5.86803 17.7693 5.65385V0.807692C17.7693 0.593511 17.6842 0.387978 17.5328 0.236538C17.3813 0.0850985 17.1758 0 16.9616 0ZM16.1539 4.84615H11.3078V1.61538H16.1539V4.84615Z" fill="#616161"/>
</svg>
