<svg width="26" height="21" viewBox="0 0 26 21" fill="none" xmlns="http://www.w3.org/2000/svg">
<path d="M25.5288 0H10.4488C10.1886 0 9.97755 0.211421 9.97755 0.472632V2.99233C9.97755 3.11766 10.0272 3.23772 10.1156 3.32655C10.2039 3.41516 10.3238 3.46496 10.4488 3.46496H25.5288C25.6537 3.46496 25.7736 3.41517 25.862 3.32655C25.9503 3.23772 26 3.11766 26 2.99233V0.472632C26 0.347301 25.9503 0.227031 25.862 0.138414C25.7736 0.0497965 25.6537 0 25.5288 0ZM25.0575 2.5197H10.92V0.945264H25.0575V2.5197ZM25.5288 8.82326H10.4488C10.1886 8.82326 9.97755 9.03468 9.97755 9.29589V11.8156C9.97755 11.9409 10.0272 12.061 10.1156 12.1498C10.2039 12.2384 10.3238 12.2882 10.4488 12.2882H25.5288C25.6537 12.2882 25.7736 12.2384 25.862 12.1498C25.9503 12.061 26 11.9409 26 11.8156V9.29589C26 9.17056 25.9503 9.05029 25.862 8.96167C25.7736 8.87306 25.6537 8.82326 25.5288 8.82326ZM25.0575 11.343H10.92V9.76852H25.0575V11.343ZM25.5288 17.5352H2.90882C2.64858 17.5352 2.43757 17.7467 2.43757 18.0077V20.5274C2.43757 20.6527 2.48722 20.773 2.57558 20.8616C2.66393 20.9502 2.78385 21 2.90882 21H25.5288C25.6537 21 25.7736 20.9502 25.862 20.8616C25.9503 20.773 26 20.6527 26 20.5274V18.0077C26 17.8823 25.9503 17.7623 25.862 17.6735C25.7736 17.5848 25.6537 17.5352 25.5288 17.5352ZM25.0575 20.0549H3.38006V18.4803H25.0575V20.0549ZM9.58654 6.14389C9.58654 5.97489 9.49671 5.81875 9.35092 5.73435L0.706873 0.729312C0.561082 0.644703 0.381415 0.644703 0.235624 0.729312C0.0896234 0.813711 0 0.969847 0 1.13864V11.1498C0 11.3186 0.0896234 11.4747 0.235624 11.5591C0.381415 11.6437 0.561082 11.6437 0.706873 11.5591L9.35092 6.55345C9.49671 6.46905 9.58654 6.31269 9.58654 6.14389ZM0.942497 10.3307V1.95675L8.1728 6.14379L0.942497 10.3307Z" fill="#76C3FF"/>
</svg>
