<svg width="21" height="21" viewBox="0 0 21 21" fill="none" xmlns="http://www.w3.org/2000/svg">
<path d="M17.5596 0.0522461H3.55957C2.76392 0.0522461 2.00086 0.368317 1.43825 0.930926C0.875641 1.49354 0.55957 2.2566 0.55957 3.05225V13.0522C0.55957 13.8479 0.875641 14.611 1.43825 15.1736C2.00086 15.7362 2.76392 16.0522 3.55957 16.0522H15.1496L18.8496 19.7622C18.943 19.8549 19.0538 19.9283 19.1757 19.978C19.2975 20.0278 19.428 20.053 19.5596 20.0522C19.6907 20.0556 19.8209 20.0282 19.9396 19.9722C20.1222 19.8972 20.2785 19.7698 20.3888 19.6061C20.4992 19.4424 20.5586 19.2497 20.5596 19.0522V3.05225C20.5596 2.2566 20.2435 1.49354 19.6809 0.930926C19.1183 0.368317 18.3552 0.0522461 17.5596 0.0522461ZM18.5596 16.6422L16.2696 14.3422C16.1761 14.2496 16.0653 14.1762 15.9435 14.1265C15.8216 14.0767 15.6912 14.0515 15.5596 14.0522H3.55957C3.29435 14.0522 3.04 13.9469 2.85246 13.7594C2.66493 13.5718 2.55957 13.3175 2.55957 13.0522V3.05225C2.55957 2.78703 2.66493 2.53268 2.85246 2.34514C3.04 2.1576 3.29435 2.05225 3.55957 2.05225H17.5596C17.8248 2.05225 18.0791 2.1576 18.2667 2.34514C18.4542 2.53268 18.5596 2.78703 18.5596 3.05225V16.6422Z" fill="black"/>
</svg>
