<svg width="17" height="21" viewBox="0 0 17 21" fill="none" xmlns="http://www.w3.org/2000/svg">
<path d="M14.0195 12.1273V8.94727C14.0181 7.53039 13.5153 6.15973 12.6001 5.07804C11.685 3.99635 10.4166 3.27341 9.01953 3.03727V1.94727C9.01953 1.68205 8.91417 1.4277 8.72664 1.24016C8.5391 1.05262 8.28475 0.947266 8.01953 0.947266C7.75431 0.947266 7.49996 1.05262 7.31242 1.24016C7.12489 1.4277 7.01953 1.68205 7.01953 1.94727V3.03727C5.62247 3.27341 4.35406 3.99635 3.43892 5.07804C2.52378 6.15973 2.02097 7.53039 2.01953 8.94727V12.1273C1.43598 12.3336 0.93053 12.7153 0.57247 13.2202C0.21441 13.7251 0.0212708 14.3283 0.0195312 14.9473V16.9473C0.0195312 17.2125 0.124888 17.4668 0.312425 17.6544C0.499961 17.8419 0.754315 17.9473 1.01953 17.9473H4.15953C4.38981 18.7946 4.89253 19.5427 5.59013 20.076C6.28772 20.6093 7.14143 20.8983 8.01953 20.8983C8.89763 20.8983 9.75134 20.6093 10.4489 20.076C11.1465 19.5427 11.6492 18.7946 11.8795 17.9473H15.0195C15.2847 17.9473 15.5391 17.8419 15.7266 17.6544C15.9142 17.4668 16.0195 17.2125 16.0195 16.9473V14.9473C16.0178 14.3283 15.8247 13.7251 15.4666 13.2202C15.1085 12.7153 14.6031 12.3336 14.0195 12.1273ZM4.01953 8.94727C4.01953 7.8864 4.44096 6.86898 5.1911 6.11884C5.94125 5.36869 6.95867 4.94727 8.01953 4.94727C9.0804 4.94727 10.0978 5.36869 10.848 6.11884C11.5981 6.86898 12.0195 7.8864 12.0195 8.94727V11.9473H4.01953V8.94727ZM8.01953 18.9473C7.6705 18.9452 7.3281 18.8517 7.02636 18.6763C6.72462 18.5009 6.47404 18.2495 6.29953 17.9473H9.73953C9.56502 18.2495 9.31444 18.5009 9.0127 18.6763C8.71096 18.8517 8.36856 18.9452 8.01953 18.9473ZM14.0195 15.9473H2.01953V14.9473C2.01953 14.682 2.12489 14.4277 2.31242 14.2402C2.49996 14.0526 2.75431 13.9473 3.01953 13.9473H13.0195C13.2847 13.9473 13.5391 14.0526 13.7266 14.2402C13.9142 14.4277 14.0195 14.682 14.0195 14.9473V15.9473Z" fill="black"/>
</svg>
