<svg width="11" height="11" viewBox="0 0 11 11" fill="none" xmlns="http://www.w3.org/2000/svg">
<path d="M0.625075 10.2215C0.547197 10.2214 0.4702 10.205 0.398978 10.1735C0.327757 10.142 0.263871 10.0961 0.211381 10.0386C0.157943 9.98158 0.117166 9.91392 0.091724 9.84005C0.0662822 9.76618 0.0567507 9.68777 0.0637542 9.60996L0.201278 8.09853L6.5543 1.75098L8.53969 3.7348L2.18835 10.0818L0.676155 10.2192C0.659174 10.2208 0.642127 10.2216 0.625075 10.2215Z" fill="black"/>
<path d="M8.93698 3.33832L6.95215 1.3545L8.14271 0.164544C8.19484 0.112381 8.25675 0.0709997 8.32489 0.042766C8.39303 0.0145323 8.46608 0 8.53984 0C8.61361 0 8.68665 0.0145323 8.7548 0.042766C8.82294 0.0709997 8.88485 0.112381 8.93698 0.164544L10.1275 1.3545C10.1797 1.40661 10.2211 1.46848 10.2494 1.53659C10.2776 1.6047 10.2922 1.6777 10.2922 1.75143C10.2922 1.82516 10.2776 1.89817 10.2494 1.96628C10.2211 2.03438 10.1797 2.09626 10.1275 2.14837L8.93754 3.33776L8.93698 3.33832Z" fill="black"/>
</svg>
