<svg width="16" height="12" viewBox="0 0 16 12" fill="none" xmlns="http://www.w3.org/2000/svg">
<path d="M15.9659 5.82332C15.3553 4.2419 14.2951 2.87428 12.9165 1.8895C11.5379 0.904719 9.90125 0.34594 8.20888 0.282227C6.51651 0.34594 4.87989 0.904719 3.50128 1.8895C2.12267 2.87428 1.06251 4.2419 0.45183 5.82332C0.410588 5.93752 0.410588 6.06258 0.45183 6.17679C1.06251 7.75821 2.12267 9.12582 3.50128 10.1106C4.87989 11.0954 6.51651 11.6542 8.20888 11.7179C9.90125 11.6542 11.5379 11.0954 12.9165 10.1106C14.2951 9.12582 15.3553 7.75821 15.9659 6.17679C16.0072 6.06258 16.0072 5.93752 15.9659 5.82332ZM8.20888 10.6783C5.45705 10.6783 2.54945 8.63545 1.49545 6.00005C2.54945 3.36465 5.45705 1.32183 8.20888 1.32183C10.9607 1.32183 13.8683 3.36465 14.9223 6.00005C13.8683 8.63545 10.9607 10.6783 8.20888 10.6783Z" fill="black"/>
<path d="M8.20903 2.88135C7.59289 2.88135 6.99058 3.06426 6.47828 3.40696C5.96597 3.74966 5.56668 4.23675 5.33089 4.80664C5.0951 5.37653 5.03341 6.00362 5.15361 6.60861C5.27381 7.2136 5.57052 7.76932 6.0062 8.2055C6.44188 8.64167 6.99697 8.93871 7.60127 9.05905C8.20558 9.17939 8.83196 9.11763 9.4012 8.88157C9.97044 8.64552 10.457 8.24577 10.7993 7.73288C11.1416 7.22 11.3243 6.61701 11.3243 6.00016C11.3243 5.173 10.9961 4.37972 10.4119 3.79483C9.82764 3.20994 9.03526 2.88135 8.20903 2.88135ZM8.20903 8.07937C7.79827 8.07937 7.39673 7.95743 7.0552 7.72896C6.71366 7.50049 6.44746 7.17577 6.29027 6.79584C6.13308 6.41591 6.09195 5.99786 6.17208 5.59453C6.25222 5.1912 6.45002 4.82072 6.74048 4.52994C7.03093 4.23916 7.40099 4.04113 7.80386 3.9609C8.20673 3.88068 8.62432 3.92185 9.00381 4.07922C9.38331 4.23659 9.70767 4.50309 9.93587 4.84502C10.1641 5.18694 10.2859 5.58893 10.2859 6.00016C10.2859 6.5516 10.0671 7.08046 9.67759 7.47038C9.28811 7.86031 8.75985 8.07937 8.20903 8.07937Z" fill="black"/>
</svg>
