<svg width="21" height="20" viewBox="0 0 21 20" fill="none" xmlns="http://www.w3.org/2000/svg">
<path d="M12.5668 5.01348H0V2.50674H12.5668V5.01348ZM20.1124 2.50674V5.01348H17.6153V7.19677C17.6153 7.28661 17.5881 7.35849 17.5339 7.4124C17.4796 7.46631 17.3981 7.49326 17.2896 7.49326H14.7653C14.5663 7.49326 14.4668 7.39443 14.4668 7.19677V0.32345C14.4668 0.107817 14.5663 0 14.7653 0H17.2896C17.38 0 17.4615 0.0269542 17.5339 0.0808625C17.6062 0.134771 17.6334 0.215633 17.6153 0.32345V2.50674H20.1124ZM0 14.9865H6.92126V17.4933H0V14.9865ZM11.9426 14.9865H20.1124V17.4933H11.9426V19.6765C11.9426 19.7664 11.9154 19.8383 11.8611 19.8922C11.8069 19.9461 11.7345 19.982 11.644 20H9.11977C9.0293 20 8.95692 19.9641 8.90264 19.8922C8.84835 19.8203 8.81216 19.7484 8.79407 19.6765V12.8032C8.79407 12.7134 8.83026 12.6415 8.90264 12.5876C8.97502 12.5337 9.0474 12.5067 9.11977 12.5067H11.644C11.843 12.5067 11.9426 12.6056 11.9426 12.8032V14.9865ZM6.29699 8.76011H20.1124V11.2399H6.29699V8.76011ZM1.24854 11.2399H0V8.76011H1.24854V6.54987C1.24854 6.3522 1.35711 6.25337 1.57425 6.25337H4.09847C4.29751 6.25337 4.39703 6.3522 4.39703 6.54987V13.4232C4.39703 13.6388 4.29751 13.7466 4.09847 13.7466H1.57425C1.35711 13.7466 1.24854 13.6388 1.24854 13.4232V11.2399Z" fill="#B1B1B1"/>
</svg>
