<svg width="19" height="18" viewBox="0 0 19 18" fill="none" xmlns="http://www.w3.org/2000/svg">
<path d="M13.5792 11.3208H12.721L12.4168 11.0429C13.4814 9.86964 14.1224 8.34648 14.1224 6.68954C14.1224 2.99485 10.9611 0 7.06118 0C3.16124 0 0 2.99485 0 6.68954C0 10.3842 3.16124 13.3791 7.06118 13.3791C8.81018 13.3791 10.418 12.7719 11.6564 11.7633L11.9497 12.0515V12.8645L17.3814 18L19 16.4666L13.5792 11.3208ZM7.06118 11.3208C4.3562 11.3208 2.17267 9.25214 2.17267 6.68954C2.17267 4.12693 4.3562 2.05832 7.06118 2.05832C9.76615 2.05832 11.9497 4.12693 11.9497 6.68954C11.9497 9.25214 9.76615 11.3208 7.06118 11.3208Z" fill="#B1B1B1"/>
</svg>
